<?xml version="1.0" encoding="utf-8"?>
<!-- Generator: Adobe Illustrator 21.1.0, SVG Export Plug-In . SVG Version: 6.00 Build 0)  -->
<svg version="1.1" id="Layer_1" xmlns="http://www.w3.org/2000/svg" xmlns:xlink="http://www.w3.org/1999/xlink" x="0px" y="0px"
	 viewBox="0 0 25.7 25.5" style="enable-background:new 0 0 25.7 25.5;" xml:space="preserve">
<style type="text/css">
	.a{fill:#00ad92;}
</style>
<g class="a">
	<path d="M20.6,24.6v-0.9c0-0.9-0.8-1.7-1.7-1.7h-12c-0.9,0-1.7,0.8-1.7,1.7v0.9c0,0.5,0.4,0.9,0.9,0.9h13.7
		C20.2,25.5,20.6,25.1,20.6,24.6z"/>
	<path d="M24.9,1.7h-4.3V0.9c0-0.5-0.4-0.9-0.9-0.9H6C5.5,0,5.1,0.4,5.1,0.9v0.9H0.9C0.4,1.7,0,2.1,0,2.6V6c0,3.3,2.7,6,6,6h0.4
		c0.9,1.4,2.3,2.4,3.8,3v2.7c-0.9,0-1.7,0.8-1.7,1.7v1.7h8.6v-1.7c0-0.9-0.8-1.7-1.7-1.7V15c1.6-0.6,2.9-1.6,3.8-3h0.4
		c3.3,0,6-2.7,6-6V2.6C25.7,2.1,25.4,1.7,24.9,1.7z M1.7,6V3.4h3.4v4.3c0,0.9,0.2,1.8,0.4,2.6C3.4,10.1,1.7,8.2,1.7,6z M16.9,7.2
		l-1.4,1.3l0.3,1.9c0.1,0.3-0.1,0.6-0.3,0.8c-0.3,0.2-0.6,0.2-0.9,0.1l-1.7-0.9l-1.7,0.9c-0.3,0.2-0.6,0.1-0.9-0.1
		c-0.3-0.2-0.4-0.5-0.3-0.8l0.3-1.9L8.9,7.2C8.6,7,8.6,6.7,8.7,6.4C8.8,6,9,5.8,9.4,5.8l1.9-0.3l0.8-1.7c0.1-0.3,0.4-0.5,0.8-0.5
		s0.6,0.2,0.8,0.5l0.8,1.7l1.9,0.3c0.3,0,0.6,0.3,0.7,0.6C17.2,6.7,17.1,7,16.9,7.2z M24,6c0,2.2-1.7,4.1-3.9,4.3
		c0.3-0.8,0.4-1.7,0.4-2.6V3.4H24V6z"/>
</g>
</svg>
