<?xml version="1.0" encoding="utf-8"?>
<!-- Generator: Adobe Illustrator 21.1.0, SVG Export Plug-In . SVG Version: 6.00 Build 0)  -->
<svg version="1.1" id="Layer_1" xmlns="http://www.w3.org/2000/svg" xmlns:xlink="http://www.w3.org/1999/xlink" x="0px" y="0px"
	 viewBox="0 0 24.2 18.5" style="enable-background:new 0 0 24.2 18.5;" xml:space="preserve">
<style type="text/css">
	.a{fill:#00ad92;}
</style>
<g class="a">
	<path d="M3.7,0L3.7,0C3.5,0,3.3,0.1,3.1,0.3C2.9,0.4,2.8,0.6,2.8,0.9v13c0,0.5,0.4,0.9,0.9,0.9c2,0,5.4,0.4,7.7,2.9V4
		c0-0.2,0-0.3-0.1-0.4C9.4,0.5,5.7,0,3.7,0L3.7,0z M3.7,0"/>
	<path d="M21.4,13.9v-13c0-0.2-0.1-0.5-0.3-0.6C21,0.1,20.8,0,20.5,0h0c-2,0-5.7,0.5-7.6,3.6c-0.1,0.1-0.1,0.3-0.1,0.4v13.6
		c2.3-2.4,5.7-2.9,7.7-2.9C21,14.7,21.4,14.4,21.4,13.9L21.4,13.9z M21.4,13.9"/>
	<path d="M23.4,3h-0.6v10.9c0,1.2-1,2.2-2.2,2.2c-1.7,0-4.5,0.3-6.5,2.2c3.5-0.8,7.1-0.3,9.2,0.2c0.3,0.1,0.5,0,0.7-0.2
		c0.2-0.2,0.3-0.4,0.3-0.7V3.9C24.2,3.4,23.9,3,23.4,3L23.4,3z M23.4,3"/>
	<path d="M1.5,13.9V3H0.9C0.4,3,0,3.4,0,3.9v13.8c0,0.3,0.1,0.5,0.3,0.7c0.2,0.2,0.5,0.2,0.7,0.2c2.1-0.5,5.7-1,9.2-0.2
		c-2-1.9-4.8-2.2-6.5-2.2C2.5,16.1,1.5,15.1,1.5,13.9L1.5,13.9z M1.5,13.9"/>
</g>
</svg>
