<?xml version="1.0" encoding="utf-8"?>
<!-- Generator: Adobe Illustrator 21.1.0, SVG Export Plug-In . SVG Version: 6.00 Build 0)  -->
<svg version="1.1" id="Layer_1" xmlns="http://www.w3.org/2000/svg" xmlns:xlink="http://www.w3.org/1999/xlink" x="0px" y="0px"
	 viewBox="0 0 30.4 24.4" style="enable-background:new 0 0 30.4 24.4;" xml:space="preserve">
<style type="text/css">
	.a{fill:#00ad92;}
</style>
<g class="a">
	<path d="M16.7,15v-0.6c0-0.7-0.7-1.3-1.5-1.3c-0.8,0-1.5,0.6-1.5,1.3V15c0,0.7,0.7,1.3,1.5,1.3C16,16.3,16.7,15.7,16.7,15L16.7,15z
		 M16.7,15"/>
	<path d="M17.7,15.6c-0.3,1.1-1.3,1.9-2.5,1.9c-1.2,0-2.2-0.8-2.5-1.9H2.4c-0.6,0-1.3-0.2-1.8-0.4V22c0,1.3,1.1,2.4,2.4,2.4h24.4
		c1.3,0,2.4-1.1,2.4-2.4v-6.8c-0.6,0.3-1.2,0.4-1.8,0.4H17.7z M17.7,15.6"/>
	<path d="M27.9,3.9h-5.8C21.7,1.7,19.8,0,17.5,0h-4.7c-2.3,0-4.2,1.7-4.5,3.9H2.5C1.1,3.9,0,5,0,6.3v5.6c0,1.3,1.1,2.4,2.4,2.4h10.2
		c0-0.7,0.3-1.3,0.8-1.8c0,0,0,0,0,0c0.1-0.1,0.2-0.2,0.3-0.3c0,0,0.1,0,0.1-0.1c0.1-0.1,0.2-0.1,0.3-0.2c0.1,0,0.2-0.1,0.3-0.1
		c0.1,0,0.1-0.1,0.2-0.1c0.2,0,0.3-0.1,0.5-0.1c0.2,0,0.4,0,0.5,0.1c0.1,0,0.1,0,0.2,0.1c0.1,0,0.2,0,0.3,0.1c0.1,0,0.2,0.1,0.3,0.2
		c0,0,0.1,0,0.1,0.1c0.1,0.1,0.2,0.2,0.3,0.3c0,0,0,0,0,0c0.5,0.5,0.8,1.1,0.8,1.8H28c1.3,0,2.4-1.1,2.4-2.4V6.3
		C30.4,5,29.3,3.9,27.9,3.9L27.9,3.9z M10.7,2.9c0.3-0.9,1.2-1.6,2.2-1.6h4.7c1,0,1.9,0.7,2.2,1.6H10.7z M10.7,2.9"/>
</g>
</svg>
