<?xml version="1.0" encoding="utf-8"?>
<!-- Generator: Adobe Illustrator 21.1.0, SVG Export Plug-In . SVG Version: 6.00 Build 0)  -->
<svg version="1.1" id="Layer_1" xmlns="http://www.w3.org/2000/svg" xmlns:xlink="http://www.w3.org/1999/xlink" x="0px" y="0px"
	 viewBox="0 0 19.9 19.9" style="enable-background:new 0 0 19.9 19.9;" xml:space="preserve">
<style type="text/css">
	.a{fill:#00ad92;}
</style>
<path class="a" d="M9.9,0C4.5,0,0,4.5,0,9.9s4.5,9.9,9.9,9.9s9.9-4.5,9.9-9.9S15.4,0,9.9,0z M9.9,1.7c0.5,0,0.8,0.4,0.8,0.8s-0.4,0.8-0.8,0.8
	c-0.5,0-0.8-0.4-0.8-0.8S9.5,1.7,9.9,1.7z M2.5,10.8c-0.5,0-0.8-0.4-0.8-0.8c0-0.5,0.4-0.8,0.8-0.8s0.8,0.4,0.8,0.8
	C3.3,10.4,2.9,10.8,2.5,10.8z M9.9,18.2c-0.5,0-0.8-0.4-0.8-0.8s0.4-0.8,0.8-0.8c0.5,0,0.8,0.4,0.8,0.8S10.4,18.2,9.9,18.2z
	 M13.9,13.9c-0.1,0.1-0.2,0.1-0.3,0.1c-0.1,0-0.2,0-0.3-0.1l-3.2-3.2c-0.1,0-0.1,0-0.2,0c-0.5,0-0.8-0.4-0.8-0.8
	c0-0.4,0.3-0.8,0.7-0.8l2.6-5.6c0.1-0.2,0.3-0.3,0.5-0.2c0.2,0.1,0.3,0.3,0.2,0.5l-2.6,5.6c0.1,0.1,0.2,0.3,0.2,0.5
	c0,0.1,0,0.1,0,0.2l3.2,3.2C14.1,13.5,14.1,13.8,13.9,13.9z M17.4,10.8c-0.5,0-0.8-0.4-0.8-0.8c0-0.5,0.4-0.8,0.8-0.8
	s0.8,0.4,0.8,0.8C18.2,10.4,17.8,10.8,17.4,10.8z"/>
</svg>
