<?xml version="1.0" encoding="utf-8"?>
<!-- Generator: Adobe Illustrator 21.1.0, SVG Export Plug-In . SVG Version: 6.00 Build 0)  -->
<svg version="1.1" id="Layer_1" xmlns="http://www.w3.org/2000/svg" xmlns:xlink="http://www.w3.org/1999/xlink" x="0px" y="0px"
	 viewBox="0 0 37 19.2" style="enable-background:new 0 0 37 19.2;" xml:space="preserve">
<style type="text/css">
	.a{fill:#00ad92;}
</style>
<g class="a">
	<path d="M8.2,9.6L8.2,9.6l0,1.7h20.5l0-1.7c0.1-1.9,1.2-3.5,2.9-4.1c-0.9-3.2-3.7-5.5-7-5.5H12.4c-3.3,0-6.1,2.3-7,5.5
		C7,6.1,8.2,7.7,8.2,9.6L8.2,9.6z M8.2,9.6"/>
	<path d="M33.5,6.4c-1.9,0-3.4,1.5-3.5,3.4l0,2.7H6.9l0-2.7C6.9,7.9,5.3,6.4,3.5,6.4C1.5,6.4,0,7.9,0,9.8c0,1.9,1.5,3.5,3.5,3.5
		c0.1,0,0.1,0,0.2,0c0,0,0,1.9,0,2c0,1.6,1.3,2.8,2.8,2.8h0.6v0.8c0,0.2,0.1,0.3,0.3,0.3h2.1c0.2,0,0.3-0.1,0.3-0.3v-0.8h17.5v0.8
		c0,0.2,0.1,0.3,0.3,0.3h2.1c0.2,0,0.3-0.1,0.3-0.3v-0.8h0.6c1.6,0,2.8-1.3,2.8-2.8c0,0,0,0,0,0v-1.9c0.1,0,0.1,0,0.2,0
		c1.9,0,3.5-1.5,3.5-3.5C37,7.9,35.5,6.4,33.5,6.4L33.5,6.4z M33.5,6.4"/>
</g>
</svg>
