<?xml version="1.0" encoding="utf-8"?>
<!-- Generator: Adobe Illustrator 21.1.0, SVG Export Plug-In . SVG Version: 6.00 Build 0)  -->
<svg version="1.1" id="Layer_1" xmlns="http://www.w3.org/2000/svg" xmlns:xlink="http://www.w3.org/1999/xlink" x="0px" y="0px"
	 viewBox="0 0 25.3 22.4" style="enable-background:new 0 0 25.3 22.4;" xml:space="preserve">
<style type="text/css">
	.a{fill:#00ad92;}
</style>
<g class="a">
	<path d="M12.1,14.4c0.2,0.1,0.4,0.2,0.6,0.2c0.2,0,0.4-0.1,0.6-0.2c0.2-0.2,5-4.4,5-8.8c0-3-2.5-5.5-5.5-5.5S7.1,2.5,7.1,5.5
		C7.1,9.9,11.9,14.2,12.1,14.4L12.1,14.4z M12.6,4.1c0.8,0,1.4,0.6,1.4,1.4c0,0.8-0.6,1.4-1.4,1.4c-0.8,0-1.4-0.6-1.4-1.4
		C11.2,4.7,11.8,4.1,12.6,4.1L12.6,4.1z M12.6,4.1"/>
	<g>
		<defs>
			<rect id="SVGID_1_" width="25.3" height="22.4"/>
		</defs>
		<clipPath id="SVGID_2_">
			<use xlink:href="#SVGID_1_"  style="overflow:visible;"/>
		</clipPath>
		<path class="st4" d="M23.3,14.4l-0.6-2.2c-0.1-0.4-0.4-0.6-0.8-0.6h-4.6c-0.2,0.2-0.3,0.5-0.5,0.7c-1.3,1.7-2.6,2.9-2.7,3
			c-0.4,0.3-0.8,0.5-1.3,0.5c-0.5,0-1-0.2-1.3-0.5c-0.1-0.1-1.4-1.3-2.7-3C8.4,12,8.2,11.7,8,11.5H3.5c-0.4,0-0.7,0.3-0.8,0.6
			l-0.8,2.7L19,17.9L23.3,14.4z M23.3,14.4"/>
		<path class="st4" d="M25.2,21.3l-1.6-5.7l-8.1,6.8h8.9c0.3,0,0.5-0.1,0.7-0.3C25.3,21.8,25.3,21.6,25.2,21.3L25.2,21.3z
			 M25.2,21.3"/>
		<path class="st4" d="M4.2,16.4l-2.6-0.5L0,21.3C0,21.6,0,21.8,0.2,22c0.2,0.2,0.4,0.3,0.7,0.3h3.3V16.4z M4.2,16.4"/>
	</g>
	<path d="M5.3,16.6v5.7h8.3l4.1-3.5L5.3,16.6z M5.3,16.6"/>
</g>
</svg>
