<?xml version="1.0" encoding="utf-8"?>
<!-- Generator: Adobe Illustrator 21.1.0, SVG Export Plug-In . SVG Version: 6.00 Build 0)  -->
<svg version="1.1" id="Layer_1" xmlns="http://www.w3.org/2000/svg" xmlns:xlink="http://www.w3.org/1999/xlink" x="0px" y="0px"
	 viewBox="0 0 25.3 25.3" style="enable-background:new 0 0 25.3 25.3;" xml:space="preserve">
<style type="text/css">
	.a{fill:#00ad92;}
</style>
<g class="a">
	<g>
		<defs>
			<rect id="SVGID_3_" width="25.3" height="25.3"/>
		</defs>
		<clipPath id="SVGID_2_">
			<use xlink:href="#SVGID_3_"  style="overflow:visible;"/>
		</clipPath>
		<path class="st4" d="M20.6,6.5c0.6,0.8,1.1,1.7,1.5,2.7c0.8-0.3,1.6-0.6,2.4-0.9c-0.9-2.5-2.5-4.5-4.6-6c-0.5,0.7-1,1.4-1.4,2.1
			C19.3,5,20,5.7,20.6,6.5L20.6,6.5z M20.6,6.5"/>
		<path class="st4" d="M16.9,3.5C17.2,2.8,17.6,2,18,1.2c-4.1-1.7-8-1.6-11.8,0.6C2.5,4,0.5,7.3,0,11.6c0.9,0.1,1.7,0.1,2.5,0.2
			C3,5.4,10.1,0.5,16.9,3.5L16.9,3.5z M16.9,3.5"/>
	</g>
	<path d="M2.5,13.6c-0.8,0.1-1.6,0.1-2.4,0.2c0.2,5.1,4.7,10.9,11.4,11.5c0.1-0.8,0.1-1.6,0.2-2.4C6.4,22,3.4,18.9,2.5,13.6
		L2.5,13.6z M2.5,13.6"/>
	<g>
		<defs>
			<rect id="SVGID_5_" width="25.3" height="25.3"/>
		</defs>
		<clipPath id="SVGID_4_">
			<use xlink:href="#SVGID_5_"  style="overflow:visible;"/>
		</clipPath>
		<path class="st5" d="M20.7,12.7c0-4.5-3.6-8.1-8.1-8.1c-4.5,0-8.1,3.6-8.1,8.1s3.6,8.1,8.1,8.1C17.1,20.8,20.7,17.2,20.7,12.7
			L20.7,12.7z M13.1,14.4l-1.5,1.5l-1.5-1.5L8.7,13l1.5-1.5l1.4,1.4L15,9.6l1.5,1.5L13.1,14.4z M13.1,14.4"/>
		<path class="st5" d="M25,10.5c-0.8,0.1-1.6,0.3-2.5,0.4c0.4,2.9-0.2,5.6-2,7.9c-1.8,2.3-4.2,3.6-7.1,3.9c0.1,0.8,0.1,1.6,0.2,2.5
			C19.8,25,26.4,18.9,25,10.5L25,10.5z M25,10.5"/>
	</g>
</g>
</svg>
