<?xml version="1.0" encoding="utf-8"?>
<!-- Generator: Adobe Illustrator 16.0.0, SVG Export Plug-In . SVG Version: 6.00 Build 0)  -->
<!DOCTYPE svg PUBLIC "-//W3C//DTD SVG 1.1//EN" "http://www.w3.org/Graphics/SVG/1.1/DTD/svg11.dtd">
<svg version="1.1" id="Слой_1" xmlns="http://www.w3.org/2000/svg" xmlns:xlink="http://www.w3.org/1999/xlink" x="0px" y="0px"
	 width="20.6px" height="26.042px" viewBox="0 0 20.6 26.042" enable-background="new 0 0 20.6 26.042" xml:space="preserve">
<g style="fill:#00ad92; stroke:#00ad92;">
	<defs>
		<rect id="SVGID_1_" y="0" width="20.6" height="26.043"/>
	</defs>
	<clipPath id="SVGID_2_">
		<use xlink:href="#SVGID_1_"  overflow="visible"/>
	</clipPath>
	<path style="fill:#00ad92; stroke:#00ad92;" clip-path="url(#SVGID_2_)" d="M9.944,0.281C4.936,0.455,0.802,4.344,0.321,9.323c-0.092,0.963-0.046,1.936,0.133,2.881
		c0,0.011,0.006,0.023,0.006,0.035c0.006,0.029,0.024,0.121,0.059,0.272c0.156,0.69,0.382,1.357,0.677,1.994
		c1.124,2.66,3.588,6.747,8.961,11.21c0.053,0.04,0.111,0.052,0.146,0.052c0.04,0,0.092-0.012,0.144-0.052
		c5.373-4.458,7.831-8.544,8.95-11.188c0.301-0.659,0.527-1.326,0.684-2.011c0.04-0.18,0.059-0.278,0.059-0.29
		c0.121-0.649,0.185-1.287,0.185-1.925C20.324,4.651,15.63,0.083,9.944,0.281 M10.3,14.934c-2.486,0-4.503-2.023-4.503-4.504
		c0-2.48,2.023-4.504,4.503-4.504s4.504,2.024,4.504,4.504C14.804,12.911,12.786,14.934,10.3,14.934"/>
	<path style="fill:#00ad92; stroke:#00ad92;" clip-path="url(#SVGID_2_)" fill="none" stroke="#231F20" stroke-width="0.55" stroke-miterlimit="10" d="M9.944,0.281
		C4.936,0.455,0.802,4.344,0.321,9.323c-0.092,0.963-0.046,1.936,0.133,2.881c0,0.011,0.006,0.023,0.006,0.035
		c0.006,0.029,0.024,0.121,0.059,0.272c0.156,0.69,0.382,1.357,0.677,1.994c1.124,2.66,3.588,6.747,8.961,11.21
		c0.053,0.04,0.111,0.052,0.146,0.052c0.04,0,0.092-0.012,0.144-0.052c5.373-4.458,7.831-8.544,8.95-11.188
		c0.301-0.659,0.527-1.326,0.684-2.011c0.04-0.18,0.059-0.278,0.059-0.29c0.121-0.649,0.185-1.287,0.185-1.925
		C20.324,4.651,15.63,0.083,9.944,0.281z M10.3,14.934c-2.486,0-4.503-2.023-4.503-4.504c0-2.48,2.023-4.504,4.503-4.504
		s4.504,2.024,4.504,4.504C14.804,12.911,12.786,14.934,10.3,14.934z"/>
</g>
</svg>
