<?xml version="1.0" encoding="utf-8"?>
<!-- Generator: Adobe Illustrator 16.0.0, SVG Export Plug-In . SVG Version: 6.00 Build 0)  -->
<!DOCTYPE svg PUBLIC "-//W3C//DTD SVG 1.1//EN" "http://www.w3.org/Graphics/SVG/1.1/DTD/svg11.dtd">
<svg version="1.1" id="Слой_1" xmlns="http://www.w3.org/2000/svg" xmlns:xlink="http://www.w3.org/1999/xlink" x="0px" y="0px"
	 width="17.984px" height="19.009px" viewBox="0 0 17.984 19.009" enable-background="new 0 0 17.984 19.009" xml:space="preserve">
<path style="fill:white;" fill-rule="evenodd" clip-rule="evenodd" fill="none" d="M17.07,0.224C16.8,0.078,16.494,0,16.184,0
	c-0.627,0-1.217,0.319-1.54,0.835L7.274,12.56L3.178,7.861c-0.343-0.393-0.846-0.618-1.38-0.618c-0.39,0-0.762,0.118-1.075,0.343
	C-0.042,8.133-0.228,9.16,0.3,9.921l5.754,8.316c0.334,0.482,0.894,0.771,1.498,0.771c0.029,0,0.059-0.002,0.088-0.002
	c0.629-0.03,1.204-0.379,1.5-0.914l8.631-15.559C18.232,1.704,17.924,0.689,17.07,0.224z"/>
</svg>
