<?xml version="1.0" encoding="utf-8"?>
<!-- Generator: Adobe Illustrator 21.1.0, SVG Export Plug-In . SVG Version: 6.00 Build 0)  -->
<svg version="1.1" id="Layer_1" xmlns="http://www.w3.org/2000/svg" xmlns:xlink="http://www.w3.org/1999/xlink" x="0px" y="0px"
	 viewBox="0 0 24.7 22.2" style="enable-background:new 0 0 24.7 22.2;" xml:space="preserve">
<style type="text/css">
	.st0{fill:none;stroke:#000000;stroke-width:4;stroke-linecap:round;stroke-linejoin:round;stroke-miterlimit:10;}
	.st1{fill:none;stroke:#000000;stroke-width:2;stroke-linecap:round;stroke-linejoin:round;stroke-miterlimit:10;}
	.st2{fill:none;stroke:#000000;stroke-width:2;stroke-linecap:square;stroke-linejoin:bevel;stroke-miterlimit:10;}
	.st3{stroke:#000000;stroke-width:0.5;stroke-miterlimit:10;}
	.st4{clip-path:url(#SVGID_2_);}
	.st5{clip-path:url(#SVGID_4_);}
	.st6{clip-path:url(#SVGID_6_);}
	.st7{stroke:#231F20;stroke-width:0.55;stroke-miterlimit:10;}
</style>
<g>
	<path class="st3" d="M1.1,2h2.6l3.7,13.2c0.1,0.4,0.5,0.7,0.9,0.7h11.2c0.4,0,0.7-0.2,0.8-0.5L24.4,6c0.1-0.3,0.1-0.6-0.1-0.9
		c-0.2-0.3-0.4-0.4-0.7-0.4H11.1c-0.5,0-0.9,0.4-0.9,0.9c0,0.5,0.4,0.9,0.9,0.9h11l-3.3,7.6h-10L5.3,0.9C5.1,0.5,4.8,0.3,4.4,0.3
		H1.1c-0.5,0-0.9,0.4-0.9,0.9C0.3,1.6,0.7,2,1.1,2L1.1,2z M1.1,2"/>
	<path d="M7.4,22.2c1.1,0,2-0.9,2-2s-0.9-2-2-2c-1.1,0-2,0.9-2,2S6.3,22.2,7.4,22.2L7.4,22.2z M7.4,22.2"/>
	<path d="M20.1,22.2h0.1c0.5,0,1-0.3,1.4-0.7c0.4-0.4,0.5-0.9,0.5-1.5c-0.1-1.1-1-2-2.2-1.9c-1.1,0.1-2,1.1-1.9,2.2
		C18.1,21.4,19,22.2,20.1,22.2L20.1,22.2z M20.1,22.2"/>
</g>
</svg>
