<?xml version="1.0" encoding="utf-8"?>
<!-- Generator: Adobe Illustrator 21.1.0, SVG Export Plug-In . SVG Version: 6.00 Build 0)  -->
<svg version="1.1" id="Layer_1" xmlns="http://www.w3.org/2000/svg" xmlns:xlink="http://www.w3.org/1999/xlink" x="0px" y="0px"
	 viewBox="0 0 21.3 22" style="enable-background:new 0 0 21.3 22;" xml:space="preserve">
<style type="text/css">
	.a {fill:#666;}
</style>
<g class="a">
	<path d="M0.3,20.1c-0.4,0.5-0.4,1.2,0,1.6C0.6,21.9,0.9,22,1.2,22c0.3,0,0.6-0.1,0.8-0.4l5.3-5.5c1.5,1.1,3.3,1.6,5.1,1.6
		c4.9,0,8.9-4,8.9-8.9c0-4.9-4-8.9-8.9-8.9C7.5,0,3.5,4,3.5,8.9c0,2.1,0.7,4.1,2.1,5.7L0.3,20.1L0.3,20.1z M12.4,2.3
		c3.6,0,6.6,2.9,6.6,6.6c0,3.6-2.9,6.6-6.6,6.6c-3.6,0-6.6-2.9-6.6-6.6C5.8,5.3,8.7,2.3,12.4,2.3L12.4,2.3z M12.4,2.3"/>
</g>
</svg>
