<svg xmlns="http://www.w3.org/2000/svg" xmlns:xlink="http://www.w3.org/1999/xlink" viewBox="0 0 26 26"><defs><style>.a{fill:none;}.b{clip-path:url(#a);fill:#00ad92;}</style><clipPath id="a" transform="translate(0 0)"><rect class="a" width="26" height="26"/></clipPath></defs><title>socials-instagram</title><g class="b"><path d="M22.29,0H3.71A3.63,3.63,0,0,0,0,3.71V22.29A3.63,3.63,0,0,0,3.71,26H22.29A3.63,3.63,0,0,0,26,22.29V3.71A3.63,3.63,0,0,0,22.29,0M13,20.75a7.65,7.65,0,0,0,7.77-7.53,7.32,7.32,0,0,0-.32-2.15h2.2V21.63a1,1,0,0,1-1,1H4.27a1,1,0,0,1-1-1V11.07H5.57a7.32,7.32,0,0,0-.32,2.15A7.65,7.65,0,0,0,13,20.75m0-2.93a4.94,4.94,0,0,1-5-4.86,5,5,0,0,1,5-4.87,4.94,4.94,0,0,1,5,4.87,4.94,4.94,0,0,1-5,4.86M22.66,7.1a1.13,1.13,0,0,1-1.12,1.12H18.71A1.13,1.13,0,0,1,17.58,7.1V4.4a1.13,1.13,0,0,1,1.13-1.13h2.83A1.13,1.13,0,0,1,22.66,4.4Z" transform="translate(0 0)"/></g></svg>