<svg xmlns="http://www.w3.org/2000/svg" xmlns:xlink="http://www.w3.org/1999/xlink" viewBox="0 0 25.21 14.38"><defs><style>.a{fill:none;}.b{clip-path:url(#a);fill:#00ad92;}</style><clipPath id="a" transform="translate(0 0)"><rect class="a" width="25.37" height="14.5"/></clipPath></defs><title>socials-vk</title><g class="b"><path d="M25.08,13,25,12.83a13,13,0,0,0-2.51-2.9l0,0h0c-.56-.53-.91-.89-1.06-1.08a1,1,0,0,1-.18-1.06A9.92,9.92,0,0,1,22.35,6L23.2,4.9q2.27-3,2-3.86L25.1.91a.77.77,0,0,0-.41-.22,2.07,2.07,0,0,0-.84,0l-3.78,0a.5.5,0,0,0-.26,0l-.17,0-.07,0-.05,0a.58.58,0,0,0-.14.14.86.86,0,0,0-.13.23,21.55,21.55,0,0,1-1.4,3c-.32.54-.62,1-.89,1.41a7,7,0,0,1-.68.88,4.8,4.8,0,0,1-.5.45c-.15.11-.26.16-.34.14L15.2,7a.86.86,0,0,1-.3-.32,1.4,1.4,0,0,1-.15-.51c0-.21,0-.38,0-.53s0-.36,0-.63,0-.45,0-.55q0-.5,0-1.08c0-.39,0-.7,0-.93s0-.47,0-.72a3.06,3.06,0,0,0,0-.6,2,2,0,0,0-.14-.42.7.7,0,0,0-.27-.32A1.49,1.49,0,0,0,13.9.17,8.68,8.68,0,0,0,12.13,0,8.62,8.62,0,0,0,9,.32a1.75,1.75,0,0,0-.5.39C8.34.9,8.31,1,8.43,1a1.61,1.61,0,0,1,1.12.56l.08.16a2.54,2.54,0,0,1,.18.6,6.09,6.09,0,0,1,.12,1A10.14,10.14,0,0,1,9.92,5c0,.45-.09.81-.12,1.06a2.16,2.16,0,0,1-.18.62,2.85,2.85,0,0,1-.16.29L9.4,7A1,1,0,0,1,9,7.05a.84.84,0,0,1-.44-.18,3.14,3.14,0,0,1-.55-.51,6.7,6.7,0,0,1-.64-.9c-.24-.39-.48-.84-.74-1.37l-.21-.38c-.13-.25-.31-.6-.54-1.07s-.43-.92-.6-1.36A.87.87,0,0,0,5,.87l-.07,0A1,1,0,0,0,4.74.72a1.35,1.35,0,0,0-.3-.09L.84.66A.92.92,0,0,0,.09.91L0,1A.44.44,0,0,0,0,1.2a1,1,0,0,0,.08.35Q.87,3.4,1.79,5.12T3.4,7.89q.68,1.05,1.39,2t.94,1.19l.36.39.33.32a7.73,7.73,0,0,0,.93.76,15.58,15.58,0,0,0,1.35.87,7.3,7.3,0,0,0,1.73.7,5.94,5.94,0,0,0,1.92.22h1.51a1,1,0,0,0,.7-.29L14.6,14a.9.9,0,0,0,.1-.24,1.36,1.36,0,0,0,0-.36,4.35,4.35,0,0,1,.09-1,2.63,2.63,0,0,1,.22-.68,1.64,1.64,0,0,1,.28-.39,1.07,1.07,0,0,1,.22-.19l.1,0a.84.84,0,0,1,.74.2,4.42,4.42,0,0,1,.8.76q.37.45.9,1a6.23,6.23,0,0,0,.92.84l.26.16a3.18,3.18,0,0,0,.68.29,1.46,1.46,0,0,0,.73.07l3.36-.05a1.52,1.52,0,0,0,.78-.16.65.65,0,0,0,.33-.36,1,1,0,0,0,0-.45,1.74,1.74,0,0,0-.09-.35" transform="translate(0 0)"/></g></svg>