<svg xmlns="http://www.w3.org/2000/svg" xmlns:xlink="http://www.w3.org/1999/xlink" viewBox="0 0 11.72 25.99"><defs><style>.a{fill:none;}.b{clip-path:url(#a);fill:#00ad92;}</style><clipPath id="a" transform="translate(0 0)"><rect class="a" width="11.72" height="25.99"/></clipPath></defs><title>socials-facebook</title><g class="b"><path d="M2.83,5c0-.16,0-.51.07-1a3.87,3.87,0,0,1,.61-1.69A4.79,4.79,0,0,1,5.27.7,7.17,7.17,0,0,1,8.77,0h2.94V4.69H8.57A1.29,1.29,0,0,0,7.71,5a1,1,0,0,0-.4.65V8.6h3.88c0,.57-.1,1.13-.15,1.66l-.18,1.41c-.07.48-.14.92-.21,1.33H7.28V26H2.83V13H0V8.6H2.83Z" transform="translate(0 0)"/></g></svg>