<svg xmlns="http://www.w3.org/2000/svg" xmlns:xlink="http://www.w3.org/1999/xlink" viewBox="0 0 19.58 15.91"><defs><style>.a{fill:none;}.b{clip-path:url(#a);fill:#00ad92;}</style><clipPath id="a" transform="translate(0 0)"><rect class="a" width="19.58" height="15.91"/></clipPath></defs><title>socials-twitter</title><g class="b"><path d="M19.58,1.88a8.06,8.06,0,0,1-2.31.64A4.05,4.05,0,0,0,19,.29a8,8,0,0,1-2.56,1A4,4,0,0,0,9.54,4a4.11,4.11,0,0,0,.1.91A11.41,11.41,0,0,1,1.36.73,4,4,0,0,0,2.61,6.1a4,4,0,0,1-1.82-.5v0A4,4,0,0,0,4,9.59,4.14,4.14,0,0,1,3,9.72a4.08,4.08,0,0,1-.76-.07,4,4,0,0,0,3.75,2.79,8.08,8.08,0,0,1-5,1.71,8.67,8.67,0,0,1-1-.05,11.37,11.37,0,0,0,6.16,1.8A11.35,11.35,0,0,0,17.59,4.48V4a8.08,8.08,0,0,0,2-2.08" transform="translate(0 0)"/></g></svg>